<?xml version="1.0" encoding="UTF-8" standalone="no"?>
<!-- Generator: Adobe Illustrator 14.0.0, SVG Export Plug-In . SVG Version: 6.00 Build 43363)  -->

<svg
   xmlns:dc="http://purl.org/dc/elements/1.1/"
   xmlns:cc="http://creativecommons.org/ns#"
   xmlns:rdf="http://www.w3.org/1999/02/22-rdf-syntax-ns#"
   xmlns:svg="http://www.w3.org/2000/svg"
   xmlns="http://www.w3.org/2000/svg"
   xmlns:xlink="http://www.w3.org/1999/xlink"
   xmlns:sodipodi="http://sodipodi.sourceforge.net/DTD/sodipodi-0.dtd"
   xmlns:inkscape="http://www.inkscape.org/namespaces/inkscape"
   version="1.1"
   id="Layer_1"
   x="0px"
   y="0px"
   width="400"
   height="400"
   viewBox="0 0 399.99999 400.00001"
   enable-background="new 0 0 595.276 793.701"
   xml:space="preserve"
   fill="#fffff">
<path
   clip-path="none"
   d="m 546.582,691.619 h -40.605 v 40.607 h 40.605 v -40.607 z m -32.434,19.827 h 0.409 c 1.378,0 2.925,-0.258 2.925,-2.021 0,-1.763 -1.547,-2.022 -2.925,-2.022 h -0.409 v 4.043 z m 9.271,8.95 h -5.249 l -3.979,-6.238 h -0.043 v 6.238 h -4.214 v -16.22 h 6.3 c 3.205,0 5.635,1.527 5.635,4.99 0,2.237 -1.247,4.174 -3.548,4.582 l 5.098,6.648 z m 4.201,-5.508 c 0,1.397 0.927,2.474 2.518,2.474 1.592,0 2.517,-1.076 2.517,-2.474 0,-1.354 -0.925,-2.494 -2.517,-2.494 -1.592,0 -2.518,1.139 -2.518,2.494 m 8.818,5.508 h -3.913 v -1.228 h -0.043 c -0.688,1.098 -2.042,1.592 -3.334,1.592 -3.27,0 -5.57,-2.731 -5.57,-5.893 0,-3.163 2.26,-5.873 5.526,-5.873 1.268,0 2.604,0.473 3.421,1.441 v -1.074 h 3.913 v 11.035 z m 6.577,-15.274 c 0,1.206 -0.991,2.194 -2.194,2.194 -1.203,0 -2.191,-0.988 -2.191,-2.194 0,-1.204 0.988,-2.194 2.191,-2.194 1.203,0 2.194,0.99 2.194,2.194 m -0.237,15.274 h -3.912 v -11.034 h 3.912 v 11.034 z"
   id="path477"
   style="fill:#00539f"
   transform="matrix(9.8505185,0,0,9.8505185,-4984.1358,-6812.8058)" />				
</svg>